<mxfile host="app.diagrams.net" modified="2021-11-11T21:19:58.905Z" agent="5.0 (Windows NT 10.0; Win64; x64) AppleWebKit/537.36 (KHTML, like Gecko) Chrome/95.0.4638.69 Safari/537.36" etag="Q58MzOPvJRzwrHr5r3bD" version="15.7.3" type="github">
  <diagram id="RhriO2nycHPLGfSloVND" name="Page-1">
    <mxGraphModel dx="765" dy="495" grid="1" gridSize="10" guides="1" tooltips="1" connect="1" arrows="1" fold="1" page="1" pageScale="1" pageWidth="850" pageHeight="1100" math="0" shadow="0">
      <root>
        <mxCell id="0" />
        <mxCell id="1" parent="0" />
        <mxCell id="bED4Qwog3VnydT9dN03K-99" value="" style="whiteSpace=wrap;html=1;aspect=fixed;" parent="1" vertex="1">
          <mxGeometry x="580" y="690" width="80" height="80" as="geometry" />
        </mxCell>
        <mxCell id="bED4Qwog3VnydT9dN03K-98" value="" style="whiteSpace=wrap;html=1;aspect=fixed;" parent="1" vertex="1">
          <mxGeometry x="590" y="700" width="80" height="80" as="geometry" />
        </mxCell>
        <mxCell id="bED4Qwog3VnydT9dN03K-97" value="" style="whiteSpace=wrap;html=1;aspect=fixed;" parent="1" vertex="1">
          <mxGeometry x="600" y="710" width="80" height="80" as="geometry" />
        </mxCell>
        <mxCell id="bED4Qwog3VnydT9dN03K-2" value="BYTE OFFSET&lt;br&gt;3-bits" style="rounded=0;whiteSpace=wrap;html=1;" parent="1" vertex="1">
          <mxGeometry x="670" y="100" width="120" height="40" as="geometry" />
        </mxCell>
        <mxCell id="bED4Qwog3VnydT9dN03K-3" value="LOW COLUMN&lt;br&gt;" style="rounded=0;whiteSpace=wrap;html=1;" parent="1" vertex="1">
          <mxGeometry x="550" y="100" width="120" height="40" as="geometry" />
        </mxCell>
        <mxCell id="bED4Qwog3VnydT9dN03K-6" value="2Gib x 8" style="rounded=0;whiteSpace=wrap;html=1;" parent="1" vertex="1">
          <mxGeometry x="230" y="170" width="120" height="150" as="geometry" />
        </mxCell>
        <mxCell id="bED4Qwog3VnydT9dN03K-8" value="2Gib x 8" style="rounded=0;whiteSpace=wrap;html=1;" parent="1" vertex="1">
          <mxGeometry x="360" y="260" width="120" height="60" as="geometry" />
        </mxCell>
        <mxCell id="bED4Qwog3VnydT9dN03K-9" value="2Gib x 8" style="rounded=0;whiteSpace=wrap;html=1;" parent="1" vertex="1">
          <mxGeometry x="490" y="260" width="120" height="60" as="geometry" />
        </mxCell>
        <mxCell id="bED4Qwog3VnydT9dN03K-10" value="2Gib x 8" style="rounded=0;whiteSpace=wrap;html=1;" parent="1" vertex="1">
          <mxGeometry x="620" y="260" width="120" height="60" as="geometry" />
        </mxCell>
        <mxCell id="bED4Qwog3VnydT9dN03K-11" value="2&lt;sup&gt;31&lt;/sup&gt;" style="text;html=1;align=center;verticalAlign=middle;resizable=0;points=[];autosize=1;strokeColor=none;fillColor=none;" parent="1" vertex="1">
          <mxGeometry x="275" y="400" width="30" height="20" as="geometry" />
        </mxCell>
        <mxCell id="bED4Qwog3VnydT9dN03K-13" value="2&lt;sup&gt;11&lt;/sup&gt;&amp;nbsp;= 8 * x&amp;nbsp;" style="text;html=1;align=center;verticalAlign=middle;resizable=0;points=[];autosize=1;strokeColor=none;fillColor=none;" parent="1" vertex="1">
          <mxGeometry x="365" y="400" width="70" height="20" as="geometry" />
        </mxCell>
        <mxCell id="bED4Qwog3VnydT9dN03K-14" value="" style="rounded=0;whiteSpace=wrap;html=1;" parent="1" vertex="1">
          <mxGeometry x="310" y="270" width="20" height="30" as="geometry" />
        </mxCell>
        <mxCell id="bED4Qwog3VnydT9dN03K-15" value="" style="rounded=0;whiteSpace=wrap;html=1;" parent="1" vertex="1">
          <mxGeometry x="255" y="280" width="30" height="10" as="geometry" />
        </mxCell>
        <mxCell id="bED4Qwog3VnydT9dN03K-16" value="" style="shape=flexArrow;endArrow=classic;html=1;rounded=0;exitX=0.461;exitY=1.009;exitDx=0;exitDy=0;exitPerimeter=0;entryX=0.272;entryY=0.026;entryDx=0;entryDy=0;entryPerimeter=0;" parent="1" source="bED4Qwog3VnydT9dN03K-6" target="bED4Qwog3VnydT9dN03K-11" edge="1">
          <mxGeometry width="50" height="50" relative="1" as="geometry">
            <mxPoint x="420" y="360" as="sourcePoint" />
            <mxPoint x="470" y="310" as="targetPoint" />
          </mxGeometry>
        </mxCell>
        <mxCell id="bED4Qwog3VnydT9dN03K-18" value="2&lt;sup&gt;11&lt;/sup&gt;&amp;nbsp;/ 2&lt;sup&gt;5&lt;/sup&gt;&amp;nbsp;= 2&lt;sup&gt;6&lt;/sup&gt;&amp;nbsp;= 64" style="text;html=1;align=center;verticalAlign=middle;resizable=0;points=[];autosize=1;strokeColor=none;fillColor=none;" parent="1" vertex="1">
          <mxGeometry x="505" y="390" width="110" height="20" as="geometry" />
        </mxCell>
        <mxCell id="bED4Qwog3VnydT9dN03K-19" value="2&lt;sup&gt;31&lt;/sup&gt;&amp;nbsp;/ 2&lt;sup&gt;10&lt;/sup&gt;&amp;nbsp;= 2&lt;sup&gt;21&lt;/sup&gt;&amp;nbsp;=&amp;nbsp;" style="text;html=1;align=center;verticalAlign=middle;resizable=0;points=[];autosize=1;strokeColor=none;fillColor=none;" parent="1" vertex="1">
          <mxGeometry x="315" y="350" width="110" height="20" as="geometry" />
        </mxCell>
        <mxCell id="bED4Qwog3VnydT9dN03K-21" value="2097152 x 512 x 32" style="text;html=1;align=center;verticalAlign=middle;resizable=0;points=[];autosize=1;strokeColor=none;fillColor=none;" parent="1" vertex="1">
          <mxGeometry x="240" y="450" width="120" height="20" as="geometry" />
        </mxCell>
        <mxCell id="bED4Qwog3VnydT9dN03K-22" value="2&lt;sup&gt;21&lt;/sup&gt;x2&lt;sup&gt;9&lt;/sup&gt;x2&lt;sup&gt;5&lt;/sup&gt;" style="text;html=1;align=center;verticalAlign=middle;resizable=0;points=[];autosize=1;strokeColor=none;fillColor=none;" parent="1" vertex="1">
          <mxGeometry x="265" y="470" width="70" height="20" as="geometry" />
        </mxCell>
        <mxCell id="bED4Qwog3VnydT9dN03K-23" value="ROW&lt;br&gt;15-bits" style="whiteSpace=wrap;html=1;" parent="1" vertex="1">
          <mxGeometry x="50" y="550" width="70" height="30" as="geometry" />
        </mxCell>
        <mxCell id="bED4Qwog3VnydT9dN03K-24" value="HIGHER COLUMN&lt;br&gt;8-bits" style="whiteSpace=wrap;html=1;" parent="1" vertex="1">
          <mxGeometry x="120" y="550" width="130" height="30" as="geometry" />
        </mxCell>
        <mxCell id="bED4Qwog3VnydT9dN03K-25" value="LOWER COLUMN&lt;br&gt;3-bits" style="whiteSpace=wrap;html=1;" parent="1" vertex="1">
          <mxGeometry x="400" y="550" width="120" height="30" as="geometry" />
        </mxCell>
        <mxCell id="bED4Qwog3VnydT9dN03K-29" value="BYTE OFFSET&lt;br&gt;3-bits" style="whiteSpace=wrap;html=1;" parent="1" vertex="1">
          <mxGeometry x="520" y="550" width="90" height="30" as="geometry" />
        </mxCell>
        <mxCell id="bED4Qwog3VnydT9dN03K-30" value="2&lt;sup&gt;38&lt;/sup&gt;&amp;nbsp;= 256GiB" style="text;html=1;align=center;verticalAlign=middle;resizable=0;points=[];autosize=1;strokeColor=none;fillColor=none;" parent="1" vertex="1">
          <mxGeometry x="465" y="450" width="90" height="20" as="geometry" />
        </mxCell>
        <mxCell id="bED4Qwog3VnydT9dN03K-31" value="8 Gi addresses = 33-bits total" style="text;html=1;align=center;verticalAlign=middle;resizable=0;points=[];autosize=1;strokeColor=none;fillColor=none;" parent="1" vertex="1">
          <mxGeometry x="50" y="530" width="170" height="20" as="geometry" />
        </mxCell>
        <mxCell id="bED4Qwog3VnydT9dN03K-33" value="2Gib x 8" style="rounded=0;whiteSpace=wrap;html=1;" parent="1" vertex="1">
          <mxGeometry x="880" y="260" width="120" height="60" as="geometry" />
        </mxCell>
        <mxCell id="bED4Qwog3VnydT9dN03K-34" value="2Gib x 8" style="rounded=0;whiteSpace=wrap;html=1;" parent="1" vertex="1">
          <mxGeometry x="1155" y="250" width="120" height="60" as="geometry" />
        </mxCell>
        <mxCell id="bED4Qwog3VnydT9dN03K-35" value="2Gib x 8" style="rounded=0;whiteSpace=wrap;html=1;" parent="1" vertex="1">
          <mxGeometry x="1020" y="250" width="120" height="60" as="geometry" />
        </mxCell>
        <mxCell id="bED4Qwog3VnydT9dN03K-36" value="2Gib x 8" style="rounded=0;whiteSpace=wrap;html=1;" parent="1" vertex="1">
          <mxGeometry x="760" y="260" width="120" height="60" as="geometry" />
        </mxCell>
        <mxCell id="bED4Qwog3VnydT9dN03K-37" value="2&lt;sup&gt;14&lt;/sup&gt;&lt;br&gt;2&lt;sup&gt;16&lt;/sup&gt;x2&lt;sup&gt;9&lt;/sup&gt;x2&lt;sup&gt;5&lt;/sup&gt;&lt;br&gt;" style="text;html=1;align=center;verticalAlign=middle;resizable=0;points=[];autosize=1;strokeColor=none;fillColor=none;" parent="1" vertex="1">
          <mxGeometry x="600" y="430" width="70" height="40" as="geometry" />
        </mxCell>
        <mxCell id="bED4Qwog3VnydT9dN03K-38" value="2&lt;sup&gt;33&lt;/sup&gt;&amp;nbsp;/ 2&lt;sup&gt;3&lt;/sup&gt;= 2&lt;sup&gt;30&lt;/sup&gt;&amp;nbsp;addresses" style="text;html=1;align=center;verticalAlign=middle;resizable=0;points=[];autosize=1;strokeColor=none;fillColor=none;" parent="1" vertex="1">
          <mxGeometry x="720" y="370" width="140" height="20" as="geometry" />
        </mxCell>
        <mxCell id="bED4Qwog3VnydT9dN03K-39" value="2&lt;sup&gt;11&lt;/sup&gt;x2&lt;sup&gt;3&lt;/sup&gt;&amp;nbsp;/ 2&lt;sup&gt;3&lt;/sup&gt;&amp;nbsp;= 2048" style="text;html=1;align=center;verticalAlign=middle;resizable=0;points=[];autosize=1;strokeColor=none;fillColor=none;" parent="1" vertex="1">
          <mxGeometry x="625" y="470" width="110" height="20" as="geometry" />
        </mxCell>
        <mxCell id="bED4Qwog3VnydT9dN03K-40" value="Text" style="text;html=1;align=center;verticalAlign=middle;resizable=0;points=[];autosize=1;strokeColor=none;fillColor=none;" parent="1" vertex="1">
          <mxGeometry x="130" y="390" width="40" height="20" as="geometry" />
        </mxCell>
        <mxCell id="bED4Qwog3VnydT9dN03K-41" value="2Gib x 8" style="rounded=0;whiteSpace=wrap;html=1;" parent="1" vertex="1">
          <mxGeometry x="1155" y="250" width="120" height="60" as="geometry" />
        </mxCell>
        <mxCell id="bED4Qwog3VnydT9dN03K-42" value="2Gib x 8" style="rounded=0;whiteSpace=wrap;html=1;" parent="1" vertex="1">
          <mxGeometry x="1020" y="250" width="120" height="60" as="geometry" />
        </mxCell>
        <mxCell id="bED4Qwog3VnydT9dN03K-43" value="2Gib x 8" style="rounded=0;whiteSpace=wrap;html=1;" parent="1" vertex="1">
          <mxGeometry x="880" y="260" width="120" height="60" as="geometry" />
        </mxCell>
        <mxCell id="bED4Qwog3VnydT9dN03K-44" value="2&lt;sup&gt;30&lt;/sup&gt;&amp;nbsp;/ 2&lt;sup&gt;11&lt;/sup&gt;&amp;nbsp;= 2&lt;sup&gt;19&lt;/sup&gt;&amp;nbsp;=&amp;nbsp;" style="text;html=1;align=center;verticalAlign=middle;resizable=0;points=[];autosize=1;strokeColor=none;fillColor=none;" parent="1" vertex="1">
          <mxGeometry x="825" y="490" width="110" height="20" as="geometry" />
        </mxCell>
        <mxCell id="bED4Qwog3VnydT9dN03K-49" value="BANK&lt;br&gt;2-bits" style="whiteSpace=wrap;html=1;" parent="1" vertex="1">
          <mxGeometry x="250" y="550" width="60" height="30" as="geometry" />
        </mxCell>
        <mxCell id="bED4Qwog3VnydT9dN03K-50" value="BANK GROUP&lt;br&gt;2-bits" style="whiteSpace=wrap;html=1;" parent="1" vertex="1">
          <mxGeometry x="310" y="550" width="90" height="30" as="geometry" />
        </mxCell>
        <mxCell id="bED4Qwog3VnydT9dN03K-76" value="1Gib&lt;br&gt;=&lt;br&gt;x64x32" style="whiteSpace=wrap;html=1;aspect=fixed;" parent="1" vertex="1">
          <mxGeometry x="160" y="680" width="40" height="40" as="geometry" />
        </mxCell>
        <mxCell id="bED4Qwog3VnydT9dN03K-77" value="1Gib&lt;br&gt;=&lt;br&gt;x64x32" style="whiteSpace=wrap;html=1;aspect=fixed;" parent="1" vertex="1">
          <mxGeometry x="170" y="690" width="40" height="40" as="geometry" />
        </mxCell>
        <mxCell id="bED4Qwog3VnydT9dN03K-78" value="1Gib&lt;br&gt;=&lt;br&gt;x64x32" style="whiteSpace=wrap;html=1;aspect=fixed;" parent="1" vertex="1">
          <mxGeometry x="180" y="700" width="40" height="40" as="geometry" />
        </mxCell>
        <mxCell id="bED4Qwog3VnydT9dN03K-79" value="32Kix256x64" style="whiteSpace=wrap;html=1;aspect=fixed;" parent="1" vertex="1">
          <mxGeometry x="160" y="750" width="90" height="90" as="geometry" />
        </mxCell>
        <mxCell id="bED4Qwog3VnydT9dN03K-80" value="1Gib&lt;br&gt;=&lt;br&gt;x64x32" style="whiteSpace=wrap;html=1;aspect=fixed;" parent="1" vertex="1">
          <mxGeometry x="250" y="680" width="40" height="40" as="geometry" />
        </mxCell>
        <mxCell id="bED4Qwog3VnydT9dN03K-81" value="1Gib&lt;br&gt;=&lt;br&gt;x64x32" style="whiteSpace=wrap;html=1;aspect=fixed;" parent="1" vertex="1">
          <mxGeometry x="260" y="690" width="40" height="40" as="geometry" />
        </mxCell>
        <mxCell id="bED4Qwog3VnydT9dN03K-82" value="1Gib&lt;br&gt;=&lt;br&gt;x64x32" style="whiteSpace=wrap;html=1;aspect=fixed;" parent="1" vertex="1">
          <mxGeometry x="270" y="700" width="40" height="40" as="geometry" />
        </mxCell>
        <mxCell id="bED4Qwog3VnydT9dN03K-83" value="1Gib&lt;br&gt;=&lt;br&gt;x64x32" style="whiteSpace=wrap;html=1;aspect=fixed;" parent="1" vertex="1">
          <mxGeometry x="280" y="710" width="40" height="40" as="geometry" />
        </mxCell>
        <mxCell id="bED4Qwog3VnydT9dN03K-84" value="1Gib&lt;br&gt;=&lt;br&gt;x64x32" style="whiteSpace=wrap;html=1;aspect=fixed;" parent="1" vertex="1">
          <mxGeometry x="340" y="680" width="40" height="40" as="geometry" />
        </mxCell>
        <mxCell id="bED4Qwog3VnydT9dN03K-85" value="1Gib&lt;br&gt;=&lt;br&gt;x64x32" style="whiteSpace=wrap;html=1;aspect=fixed;" parent="1" vertex="1">
          <mxGeometry x="350" y="690" width="40" height="40" as="geometry" />
        </mxCell>
        <mxCell id="bED4Qwog3VnydT9dN03K-86" value="1Gib&lt;br&gt;=&lt;br&gt;x64x32" style="whiteSpace=wrap;html=1;aspect=fixed;" parent="1" vertex="1">
          <mxGeometry x="360" y="700" width="40" height="40" as="geometry" />
        </mxCell>
        <mxCell id="bED4Qwog3VnydT9dN03K-87" value="1Gib&lt;br&gt;=&lt;br&gt;x64x32" style="whiteSpace=wrap;html=1;aspect=fixed;" parent="1" vertex="1">
          <mxGeometry x="370" y="710" width="40" height="40" as="geometry" />
        </mxCell>
        <mxCell id="bED4Qwog3VnydT9dN03K-88" value="1Gib&lt;br&gt;=&lt;br&gt;x64x32" style="whiteSpace=wrap;html=1;aspect=fixed;" parent="1" vertex="1">
          <mxGeometry x="435" y="680" width="40" height="40" as="geometry" />
        </mxCell>
        <mxCell id="bED4Qwog3VnydT9dN03K-89" value="1Gib&lt;br&gt;=&lt;br&gt;x64x32" style="whiteSpace=wrap;html=1;aspect=fixed;" parent="1" vertex="1">
          <mxGeometry x="445" y="690" width="40" height="40" as="geometry" />
        </mxCell>
        <mxCell id="bED4Qwog3VnydT9dN03K-90" value="1Gib&lt;br&gt;=&lt;br&gt;x64x32" style="whiteSpace=wrap;html=1;aspect=fixed;" parent="1" vertex="1">
          <mxGeometry x="455" y="700" width="40" height="40" as="geometry" />
        </mxCell>
        <mxCell id="bED4Qwog3VnydT9dN03K-91" value="1Gib&lt;br&gt;=&lt;br&gt;x64x32" style="whiteSpace=wrap;html=1;aspect=fixed;" parent="1" vertex="1">
          <mxGeometry x="465" y="710" width="40" height="40" as="geometry" />
        </mxCell>
        <mxCell id="bED4Qwog3VnydT9dN03K-92" value="4x4xAxBxC = 1GiB =8Gib" style="text;html=1;align=center;verticalAlign=middle;resizable=0;points=[];autosize=1;strokeColor=none;fillColor=none;" parent="1" vertex="1">
          <mxGeometry x="245" y="790" width="150" height="20" as="geometry" />
        </mxCell>
        <mxCell id="bED4Qwog3VnydT9dN03K-93" value="AxBxC = 512Mib" style="text;html=1;align=center;verticalAlign=middle;resizable=0;points=[];autosize=1;strokeColor=none;fillColor=none;" parent="1" vertex="1">
          <mxGeometry x="245" y="840" width="110" height="20" as="geometry" />
        </mxCell>
        <mxCell id="bED4Qwog3VnydT9dN03K-94" value="A = 512Mi / 16Ki = 32Ki" style="text;html=1;align=center;verticalAlign=middle;resizable=0;points=[];autosize=1;strokeColor=none;fillColor=none;" parent="1" vertex="1">
          <mxGeometry x="270" y="880" width="140" height="20" as="geometry" />
        </mxCell>
        <mxCell id="bED4Qwog3VnydT9dN03K-95" value="Bank 0&lt;br&gt;&lt;br&gt;&lt;br&gt;32Kix256x64" style="whiteSpace=wrap;html=1;aspect=fixed;" parent="1" vertex="1">
          <mxGeometry x="610" y="720" width="80" height="80" as="geometry" />
        </mxCell>
        <mxCell id="bED4Qwog3VnydT9dN03K-100" value="" style="whiteSpace=wrap;html=1;aspect=fixed;" parent="1" vertex="1">
          <mxGeometry x="700" y="690" width="80" height="80" as="geometry" />
        </mxCell>
        <mxCell id="bED4Qwog3VnydT9dN03K-101" value="" style="whiteSpace=wrap;html=1;aspect=fixed;" parent="1" vertex="1">
          <mxGeometry x="710" y="700" width="80" height="80" as="geometry" />
        </mxCell>
        <mxCell id="bED4Qwog3VnydT9dN03K-102" value="" style="whiteSpace=wrap;html=1;aspect=fixed;" parent="1" vertex="1">
          <mxGeometry x="720" y="710" width="80" height="80" as="geometry" />
        </mxCell>
        <mxCell id="bED4Qwog3VnydT9dN03K-103" value="Bank 0&lt;br&gt;&lt;br&gt;&lt;br&gt;32Kix256x64" style="whiteSpace=wrap;html=1;aspect=fixed;" parent="1" vertex="1">
          <mxGeometry x="730" y="720" width="80" height="80" as="geometry" />
        </mxCell>
        <mxCell id="bED4Qwog3VnydT9dN03K-104" value="" style="whiteSpace=wrap;html=1;aspect=fixed;" parent="1" vertex="1">
          <mxGeometry x="820" y="690" width="80" height="80" as="geometry" />
        </mxCell>
        <mxCell id="bED4Qwog3VnydT9dN03K-105" value="" style="whiteSpace=wrap;html=1;aspect=fixed;" parent="1" vertex="1">
          <mxGeometry x="830" y="700" width="80" height="80" as="geometry" />
        </mxCell>
        <mxCell id="bED4Qwog3VnydT9dN03K-106" value="" style="whiteSpace=wrap;html=1;aspect=fixed;" parent="1" vertex="1">
          <mxGeometry x="840" y="710" width="80" height="80" as="geometry" />
        </mxCell>
        <mxCell id="bED4Qwog3VnydT9dN03K-107" value="Bank 0&lt;br&gt;&lt;br&gt;&lt;br&gt;32Kix256x64" style="whiteSpace=wrap;html=1;aspect=fixed;" parent="1" vertex="1">
          <mxGeometry x="850" y="720" width="80" height="80" as="geometry" />
        </mxCell>
        <mxCell id="bED4Qwog3VnydT9dN03K-108" value="" style="whiteSpace=wrap;html=1;aspect=fixed;" parent="1" vertex="1">
          <mxGeometry x="940" y="690" width="80" height="80" as="geometry" />
        </mxCell>
        <mxCell id="bED4Qwog3VnydT9dN03K-109" value="" style="whiteSpace=wrap;html=1;aspect=fixed;" parent="1" vertex="1">
          <mxGeometry x="950" y="700" width="80" height="80" as="geometry" />
        </mxCell>
        <mxCell id="bED4Qwog3VnydT9dN03K-110" value="" style="whiteSpace=wrap;html=1;aspect=fixed;" parent="1" vertex="1">
          <mxGeometry x="960" y="710" width="80" height="80" as="geometry" />
        </mxCell>
        <mxCell id="bED4Qwog3VnydT9dN03K-111" value="Bank 0&lt;br&gt;&lt;br&gt;&lt;br&gt;32Kix256x64" style="whiteSpace=wrap;html=1;aspect=fixed;" parent="1" vertex="1">
          <mxGeometry x="970" y="720" width="80" height="80" as="geometry" />
        </mxCell>
        <mxCell id="bED4Qwog3VnydT9dN03K-112" value="Bank Group 0" style="text;html=1;align=center;verticalAlign=middle;resizable=0;points=[];autosize=1;strokeColor=none;fillColor=none;" parent="1" vertex="1">
          <mxGeometry x="605" y="810" width="90" height="20" as="geometry" />
        </mxCell>
        <mxCell id="bED4Qwog3VnydT9dN03K-113" value="Bank Group 1" style="text;html=1;align=center;verticalAlign=middle;resizable=0;points=[];autosize=1;strokeColor=none;fillColor=none;" parent="1" vertex="1">
          <mxGeometry x="725" y="810" width="90" height="20" as="geometry" />
        </mxCell>
        <mxCell id="bED4Qwog3VnydT9dN03K-114" value="Bank Group 2" style="text;html=1;align=center;verticalAlign=middle;resizable=0;points=[];autosize=1;strokeColor=none;fillColor=none;" parent="1" vertex="1">
          <mxGeometry x="846" y="810" width="90" height="20" as="geometry" />
        </mxCell>
        <mxCell id="bED4Qwog3VnydT9dN03K-115" value="Bank Group 3" style="text;html=1;align=center;verticalAlign=middle;resizable=0;points=[];autosize=1;strokeColor=none;fillColor=none;" parent="1" vertex="1">
          <mxGeometry x="966" y="810" width="90" height="20" as="geometry" />
        </mxCell>
      </root>
    </mxGraphModel>
  </diagram>
</mxfile>
